<svg xmlns="http://www.w3.org/2000/svg" width="800" height="450" viewBox="0 0 800 450">
  <defs>
    <linearGradient id="bg2" x1="0%" y1="0%" x2="100%" y2="100%">
      <stop offset="0%" style="stop-color:#0c0a1e"/>
      <stop offset="50%" style="stop-color:#1a1040"/>
      <stop offset="100%" style="stop-color:#0c0a1e"/>
    </linearGradient>
    <linearGradient id="accent2" x1="0%" y1="0%" x2="100%" y2="100%">
      <stop offset="0%" style="stop-color:#a855f7"/>
      <stop offset="100%" style="stop-color:#ec4899"/>
    </linearGradient>
    <pattern id="grid2" width="40" height="40" patternUnits="userSpaceOnUse">
      <path d="M 40 0 L 0 0 0 40" fill="none" stroke="rgba(168,85,247,0.08)" stroke-width="1"/>
    </pattern>
  </defs>
  <rect width="800" height="450" fill="url(#bg2)"/>
  <rect width="800" height="450" fill="url(#grid2)"/>
  <!-- Decorative elements - neural network style -->
  <circle cx="400" cy="100" r="30" fill="none" stroke="rgba(168,85,247,0.3)" stroke-width="2"/>
  <circle cx="300" cy="200" r="20" fill="none" stroke="rgba(236,72,153,0.25)" stroke-width="2"/>
  <circle cx="500" cy="200" r="20" fill="none" stroke="rgba(236,72,153,0.25)" stroke-width="2"/>
  <circle cx="400" cy="300" r="25" fill="none" stroke="rgba(168,85,247,0.3)" stroke-width="2"/>
  <line x1="400" y1="130" x2="300" y2="180" stroke="rgba(168,85,247,0.2)" stroke-width="1.5"/>
  <line x1="400" y1="130" x2="500" y2="180" stroke="rgba(168,85,247,0.2)" stroke-width="1.5"/>
  <line x1="300" y1="220" x2="400" y2="275" stroke="rgba(236,72,153,0.15)" stroke-width="1.5"/>
  <line x1="500" y1="220" x2="400" y2="275" stroke="rgba(236,72,153,0.15)" stroke-width="1.5"/>
  <circle cx="400" cy="100" r="5" fill="#a855f7" opacity="0.9"/>
  <circle cx="300" cy="200" r="4" fill="#ec4899" opacity="0.8"/>
  <circle cx="500" cy="200" r="4" fill="#ec4899" opacity="0.8"/>
  <circle cx="400" cy="300" r="5" fill="#a855f7" opacity="0.9"/>
  <text x="400" y="380" text-anchor="middle" font-family="monospace" font-size="18" fill="rgba(216,180,254,0.6)" font-weight="bold">AI IMAGE STUDIO</text>
</svg>
